<mxfile host="app.diagrams.net" agent="Mozilla/5.0 (Windows NT 10.0; Win64; x64) AppleWebKit/537.36 (KHTML, like Gecko) Chrome/134.0.0.0 Safari/537.36 Edg/134.0.0.0" version="26.2.3">
  <diagram name="Page-1" id="xn8T5w8NXt8w5Taosf5X">
    <mxGraphModel dx="1036" dy="570" grid="1" gridSize="10" guides="1" tooltips="1" connect="1" arrows="1" fold="1" page="1" pageScale="1" pageWidth="850" pageHeight="1100" math="0" shadow="0">
      <root>
        <mxCell id="0" />
        <mxCell id="1" parent="0" />
        <mxCell id="CNKJv2PwBz8OMkcllOrj-27" style="edgeStyle=orthogonalEdgeStyle;curved=1;rounded=0;orthogonalLoop=1;jettySize=auto;html=1;exitX=0.5;exitY=1;exitDx=0;exitDy=0;entryX=0.25;entryY=0;entryDx=0;entryDy=0;" edge="1" parent="1" source="CNKJv2PwBz8OMkcllOrj-1" target="CNKJv2PwBz8OMkcllOrj-24">
          <mxGeometry relative="1" as="geometry" />
        </mxCell>
        <mxCell id="CNKJv2PwBz8OMkcllOrj-31" style="edgeStyle=orthogonalEdgeStyle;curved=1;rounded=0;orthogonalLoop=1;jettySize=auto;html=1;exitX=1;exitY=0.5;exitDx=0;exitDy=0;entryX=0.5;entryY=0;entryDx=0;entryDy=0;" edge="1" parent="1" source="CNKJv2PwBz8OMkcllOrj-1" target="CNKJv2PwBz8OMkcllOrj-30">
          <mxGeometry relative="1" as="geometry" />
        </mxCell>
        <mxCell id="CNKJv2PwBz8OMkcllOrj-1" value="&lt;b&gt;MBBS planet project&lt;/b&gt;" style="rounded=0;whiteSpace=wrap;html=1;" vertex="1" parent="1">
          <mxGeometry x="330" y="20" width="150" height="30" as="geometry" />
        </mxCell>
        <mxCell id="CNKJv2PwBz8OMkcllOrj-18" style="edgeStyle=orthogonalEdgeStyle;curved=1;rounded=0;orthogonalLoop=1;jettySize=auto;html=1;entryX=0.5;entryY=0;entryDx=0;entryDy=0;" edge="1" parent="1" source="CNKJv2PwBz8OMkcllOrj-3" target="CNKJv2PwBz8OMkcllOrj-6">
          <mxGeometry relative="1" as="geometry" />
        </mxCell>
        <mxCell id="CNKJv2PwBz8OMkcllOrj-19" style="edgeStyle=orthogonalEdgeStyle;curved=1;rounded=0;orthogonalLoop=1;jettySize=auto;html=1;exitX=0.75;exitY=1;exitDx=0;exitDy=0;entryX=0.5;entryY=0;entryDx=0;entryDy=0;" edge="1" parent="1" source="CNKJv2PwBz8OMkcllOrj-3" target="CNKJv2PwBz8OMkcllOrj-7">
          <mxGeometry relative="1" as="geometry" />
        </mxCell>
        <mxCell id="CNKJv2PwBz8OMkcllOrj-21" style="edgeStyle=orthogonalEdgeStyle;curved=1;rounded=0;orthogonalLoop=1;jettySize=auto;html=1;exitX=1;exitY=0.5;exitDx=0;exitDy=0;entryX=0;entryY=0.25;entryDx=0;entryDy=0;" edge="1" parent="1" source="CNKJv2PwBz8OMkcllOrj-3" target="CNKJv2PwBz8OMkcllOrj-20">
          <mxGeometry relative="1" as="geometry" />
        </mxCell>
        <mxCell id="CNKJv2PwBz8OMkcllOrj-3" value="Mobile App using Flutter" style="whiteSpace=wrap;html=1;aspect=fixed;" vertex="1" parent="1">
          <mxGeometry x="70" y="80" width="80" height="80" as="geometry" />
        </mxCell>
        <mxCell id="CNKJv2PwBz8OMkcllOrj-4" value="" style="curved=1;endArrow=classic;html=1;rounded=0;exitX=0;exitY=0.5;exitDx=0;exitDy=0;entryX=0.5;entryY=0;entryDx=0;entryDy=0;" edge="1" parent="1" source="CNKJv2PwBz8OMkcllOrj-1" target="CNKJv2PwBz8OMkcllOrj-3">
          <mxGeometry width="50" height="50" relative="1" as="geometry">
            <mxPoint x="200" y="110" as="sourcePoint" />
            <mxPoint x="250" y="60" as="targetPoint" />
            <Array as="points">
              <mxPoint x="310" y="20" />
              <mxPoint x="200" y="60" />
            </Array>
          </mxGeometry>
        </mxCell>
        <mxCell id="CNKJv2PwBz8OMkcllOrj-5" value="College Predictor" style="rounded=0;whiteSpace=wrap;html=1;" vertex="1" parent="1">
          <mxGeometry x="20" y="230" width="80" height="30" as="geometry" />
        </mxCell>
        <mxCell id="CNKJv2PwBz8OMkcllOrj-23" style="edgeStyle=none;rounded=0;orthogonalLoop=1;jettySize=auto;html=1;exitX=0.5;exitY=1;exitDx=0;exitDy=0;" edge="1" parent="1" source="CNKJv2PwBz8OMkcllOrj-6" target="CNKJv2PwBz8OMkcllOrj-22">
          <mxGeometry relative="1" as="geometry" />
        </mxCell>
        <mxCell id="CNKJv2PwBz8OMkcllOrj-6" value="Video lessons with Anti Piracy" style="rounded=0;whiteSpace=wrap;html=1;" vertex="1" parent="1">
          <mxGeometry x="120" y="230" width="80" height="50" as="geometry" />
        </mxCell>
        <mxCell id="CNKJv2PwBz8OMkcllOrj-7" value="Payment System using Razorpay" style="rounded=0;whiteSpace=wrap;html=1;" vertex="1" parent="1">
          <mxGeometry x="220" y="230" width="80" height="50" as="geometry" />
        </mxCell>
        <mxCell id="CNKJv2PwBz8OMkcllOrj-17" style="edgeStyle=orthogonalEdgeStyle;rounded=0;orthogonalLoop=1;jettySize=auto;html=1;exitX=0.25;exitY=1;exitDx=0;exitDy=0;entryX=0.395;entryY=0;entryDx=0;entryDy=0;entryPerimeter=0;" edge="1" parent="1" source="CNKJv2PwBz8OMkcllOrj-3" target="CNKJv2PwBz8OMkcllOrj-5">
          <mxGeometry relative="1" as="geometry" />
        </mxCell>
        <mxCell id="CNKJv2PwBz8OMkcllOrj-20" value="push notifications" style="rounded=0;whiteSpace=wrap;html=1;" vertex="1" parent="1">
          <mxGeometry x="230" y="140" width="80" height="30" as="geometry" />
        </mxCell>
        <mxCell id="CNKJv2PwBz8OMkcllOrj-22" value="Anti screenshot protection" style="rounded=0;whiteSpace=wrap;html=1;" vertex="1" parent="1">
          <mxGeometry x="120" y="320" width="90" height="30" as="geometry" />
        </mxCell>
        <mxCell id="CNKJv2PwBz8OMkcllOrj-26" style="edgeStyle=orthogonalEdgeStyle;curved=1;rounded=0;orthogonalLoop=1;jettySize=auto;html=1;exitX=0.5;exitY=1;exitDx=0;exitDy=0;entryX=0.5;entryY=0;entryDx=0;entryDy=0;" edge="1" parent="1" source="CNKJv2PwBz8OMkcllOrj-24" target="CNKJv2PwBz8OMkcllOrj-25">
          <mxGeometry relative="1" as="geometry" />
        </mxCell>
        <mxCell id="CNKJv2PwBz8OMkcllOrj-29" style="edgeStyle=orthogonalEdgeStyle;curved=1;rounded=0;orthogonalLoop=1;jettySize=auto;html=1;exitX=1;exitY=0.75;exitDx=0;exitDy=0;entryX=0.5;entryY=0;entryDx=0;entryDy=0;" edge="1" parent="1" source="CNKJv2PwBz8OMkcllOrj-24" target="CNKJv2PwBz8OMkcllOrj-28">
          <mxGeometry relative="1" as="geometry" />
        </mxCell>
        <mxCell id="CNKJv2PwBz8OMkcllOrj-24" value="Admin Panel using MERN" style="whiteSpace=wrap;html=1;aspect=fixed;" vertex="1" parent="1">
          <mxGeometry x="385" y="80" width="90" height="90" as="geometry" />
        </mxCell>
        <mxCell id="CNKJv2PwBz8OMkcllOrj-25" value="Upload Videos&lt;div&gt;Manage Student Data&lt;/div&gt;" style="rounded=0;whiteSpace=wrap;html=1;" vertex="1" parent="1">
          <mxGeometry x="360" y="200" width="120" height="60" as="geometry" />
        </mxCell>
        <mxCell id="CNKJv2PwBz8OMkcllOrj-28" value="Analytics dashboard" style="rounded=0;whiteSpace=wrap;html=1;" vertex="1" parent="1">
          <mxGeometry x="500" y="200" width="100" height="30" as="geometry" />
        </mxCell>
        <mxCell id="CNKJv2PwBz8OMkcllOrj-35" style="edgeStyle=orthogonalEdgeStyle;curved=1;rounded=0;orthogonalLoop=1;jettySize=auto;html=1;exitX=0.5;exitY=1;exitDx=0;exitDy=0;entryX=0.5;entryY=0;entryDx=0;entryDy=0;" edge="1" parent="1" source="CNKJv2PwBz8OMkcllOrj-30" target="CNKJv2PwBz8OMkcllOrj-32">
          <mxGeometry relative="1" as="geometry" />
        </mxCell>
        <mxCell id="CNKJv2PwBz8OMkcllOrj-36" style="edgeStyle=orthogonalEdgeStyle;curved=1;rounded=0;orthogonalLoop=1;jettySize=auto;html=1;exitX=1;exitY=0.5;exitDx=0;exitDy=0;entryX=0;entryY=0.5;entryDx=0;entryDy=0;" edge="1" parent="1" source="CNKJv2PwBz8OMkcllOrj-30" target="CNKJv2PwBz8OMkcllOrj-34">
          <mxGeometry relative="1" as="geometry" />
        </mxCell>
        <mxCell id="CNKJv2PwBz8OMkcllOrj-37" style="edgeStyle=orthogonalEdgeStyle;curved=1;rounded=0;orthogonalLoop=1;jettySize=auto;html=1;exitX=0.75;exitY=1;exitDx=0;exitDy=0;entryX=0.25;entryY=0;entryDx=0;entryDy=0;" edge="1" parent="1" source="CNKJv2PwBz8OMkcllOrj-30" target="CNKJv2PwBz8OMkcllOrj-33">
          <mxGeometry relative="1" as="geometry" />
        </mxCell>
        <mxCell id="CNKJv2PwBz8OMkcllOrj-30" value="Web platform&amp;nbsp;" style="whiteSpace=wrap;html=1;aspect=fixed;" vertex="1" parent="1">
          <mxGeometry x="640" y="85" width="80" height="80" as="geometry" />
        </mxCell>
        <mxCell id="CNKJv2PwBz8OMkcllOrj-32" value="Landing Page" style="rounded=0;whiteSpace=wrap;html=1;" vertex="1" parent="1">
          <mxGeometry x="640" y="200" width="70" height="40" as="geometry" />
        </mxCell>
        <mxCell id="CNKJv2PwBz8OMkcllOrj-33" value="Blog Content" style="rounded=0;whiteSpace=wrap;html=1;" vertex="1" parent="1">
          <mxGeometry x="720" y="200" width="70" height="40" as="geometry" />
        </mxCell>
        <mxCell id="CNKJv2PwBz8OMkcllOrj-34" value="College list" style="rounded=0;whiteSpace=wrap;html=1;" vertex="1" parent="1">
          <mxGeometry x="760" y="150" width="70" height="35" as="geometry" />
        </mxCell>
      </root>
    </mxGraphModel>
  </diagram>
</mxfile>
